<svg width="120" height="113" viewBox="0 0 120 113" fill="none" xmlns="http://www.w3.org/2000/svg">
  <path fill-rule="evenodd" clip-rule="evenodd" d="M74.4 39.8c1.5-1.6 4-1.4 5.2.3a3.6 3.6 0 0 1 4.5 0c1 1 1.8 2.5 1 4.4 1.7.4 2.9 1.4 3.3 3.2.4 1.8-.2 3.2-1.5 4.5l.3.3 3 3 .3.4c.3.3.3.8 0 1.1l-.3.3-29 29-.2.2a1 1 0 0 1-1.3 0c-.1 0-.2 0-.3-.2A94828.5 94828.5 0 0 1 30 56.7c-.2-.4-.1-.7.1-1l.2-.2 29-29 .3-.3a1 1 0 0 1 1.3 0l.4.3L74 39.4l.3.4Zm-43 16.6.3.4L59.8 85l.3.3h.4l.2-.2 3.8-3.8L88.7 57l.4-.4v-.2H31.5Zm35.4-19.7.5.4 10.4 10.4 3.8 3.8a3.7 3.7 0 1 0 3.2-6.1l-.9-.2c.6-.7 1-1.4.9-2.2 0-1-.4-1.6-1.1-2.2-.5-.4-1.1-.6-1.8-.6-1 0-1.8.5-2.4 1.4-.5-1.2-1.2-2-2.5-2s-2 .7-2.5 2L74 41 61.7 28.6l-1-1c-.3-.3-.5-.3-.8 0L43.4 44.3l-.2.2 9.2-5.1 5.2 3.2 9.2-5.8Z" fill="#000"/>
  <path fill-rule="evenodd" clip-rule="evenodd" d="M31.4 56.4h57.8l-.1.2-.4.4-24.2 24.2-3.8 3.8-.2.2h-.4l-.3-.3-28-28-.4-.5Zm29 3.3-1.5.1a4 4 0 0 0-1.4.5c-.4.2-.6.5-.6 1l.4 4.6.3 4c0 .4.2.7.6.8l.5.2a6 6 0 0 0 3.7-.2c.4-.1.6-.4.6-.8l.2-2.6.2-2.7.3-3.4c0-.4-.1-.7-.5-.9a4 4 0 0 0-.7-.3 8 8 0 0 0-2.2-.3Zm-.1 18.7a3 3 0 0 0 3-3 3 3 0 0 0-6 0 3 3 0 0 0 3 3Z" fill="#FF0"/>
  <path fill-rule="evenodd" clip-rule="evenodd" d="m66.8 36.7-9.2 5.8-5.2-3.2-9.2 5.1s0-.2.2-.2l16.5-16.5c.3-.4.5-.4.8 0l1 1L74 41l.4.3c.4-1.2 1.2-2 2.5-1.9 1.3 0 2 .8 2.5 2 .6-.9 1.4-1.4 2.4-1.4.7 0 1.3.2 1.8.6.7.6 1 1.3 1.1 2.2 0 .8-.3 1.5-.9 2.2l.9.1c1.8.3 3.3 2 3.1 4-.2 2.1-2 3.5-4 3.3-1-.1-1.7-.5-2.3-1.1l-3.8-3.8-10.4-10.4-.5-.4ZM81.6 45c.4.2.7.4 1 .8.2.4.2.8.2 1.2 0 .4-.1.9-.5 1.1l-1 .7c.8.1 1.6-.6 1.8-1.7.1-1.1-.5-2-1.5-2.1Z" fill="#fff"/>
  <path fill-rule="evenodd" clip-rule="evenodd" d="M60.3 59.7a8 8 0 0 1 2.2.3l.7.3c.4.2.5.5.5.9l-.3 3.4-.2 2.7-.2 2.6c0 .4-.2.7-.6.8-.3.2-.7.3-1 .3a6 6 0 0 1-3.2-.3c-.4-.1-.6-.4-.6-.9l-.3-4-.4-4.5c0-.5.2-.8.6-1a4 4 0 0 1 1.4-.5h1.4ZM60.3 78.4a3 3 0 0 1-3-3 3 3 0 0 1 6 0 3 3 0 0 1-3 3ZM81.6 45c1 0 1.6 1 1.5 2.1-.2 1-1 1.8-1.8 1.7l1-.7c.4-.2.5-.7.5-1.1 0-.4 0-.8-.3-1.2-.2-.4-.5-.6-1-.8Z" fill="#000"/>
</svg>
