<svg width="120" height="113" viewBox="0 0 120 113" fill="none" xmlns="http://www.w3.org/2000/svg">
  <path fill-rule="evenodd" clip-rule="evenodd" d="M91.3 56.3c0 .3 0 .5-.3.7l-.2.3-29.5 29.5-.2.1c-.5.5-1 .5-1.5 0l-.3-.2L30 57.3l-.3-.3a1 1 0 0 1 0-1.3l.2-.2 29.6-29.6c.3-.3.6-.5 1-.5.1 0 .3 0 .5.2l.4.3 29.5 29.5c.2.3.5.5.5 1Zm-60.4 0v.1l.3.4 28.6 28.6.3.2c.1.2.3.2.5 0l.2-.2 3.7-3.7 24.9-24.8.2-.3.2-.3H30.9Zm26.7-14.1 9.3-6 .6.6L80 49.2l.3.3c.4.3 1 .3 1.3 0 .4-.4.4-1 .1-1.4l-.3-.4-19.1-19-1.6-1.7c-.3-.2-.5-.2-.7 0l-.2.2-16.7 16.7-.2.2 9.3-5.2 5.4 3.3Z" fill="#000"/>
  <path fill-rule="evenodd" clip-rule="evenodd" d="M31 56.3h58.8l-.2.3-.2.3-24.9 24.8-3.7 3.7-.2.2c-.2.2-.4.2-.5 0l-.3-.2-28.6-28.6-.3-.4Zm28.8 17.3-.3-.3a23.3 23.3 0 0 0-5-3.5c-1.3-.7-2.5-1.2-3.9-1.5-.5-.1-.9.1-1 .5-.2.5-.1.9.3 1.1a34.5 34.5 0 0 1 5.6 5.4l3.8 5c.5.7 1.3.6 1.7 0a63.9 63.9 0 0 1 16.5-20c.4-.4.5-.8.2-1.3-.2-.3-.7-.5-1.2-.3l-1 .5a34.8 34.8 0 0 0-6.3 4.2 52.2 52.2 0 0 0-9.1 9.7l-.3.5Z" fill="#BAD37C"/>
  <path fill-rule="evenodd" clip-rule="evenodd" d="m57.6 42.2-5.4-3.3-9.3 5.3c0-.2.1-.3.2-.3l16.7-16.7.2-.2c.2-.2.4-.2.7 0l1.6 1.6 19 19.1.4.4a1 1 0 0 1-1.4 1.4c-.2 0-.2-.2-.3-.3L67.5 36.8l-.6-.5-9.3 5.9Z" fill="#fff"/>
  <path fill-rule="evenodd" clip-rule="evenodd" d="m59.8 73.6.3-.5c2.6-3.6 5.6-6.9 9.1-9.7a34.8 34.8 0 0 1 7.3-4.7c.5-.2 1 0 1.2.3.3.5.2 1-.3 1.3a63.9 63.9 0 0 0-16.5 20c-.3.6-1.1.7-1.6 0a182 182 0 0 0-3.8-5A34.5 34.5 0 0 0 50 70c-.4-.2-.5-.6-.4-1 .2-.5.6-.7 1.1-.6a23.3 23.3 0 0 1 8.8 5c.2 0 .3.2.4.3Z" fill="#000"/>
</svg>
