<svg width="120" height="113" viewBox="0 0 120 113" fill="none" xmlns="http://www.w3.org/2000/svg">
  <path fill-rule="evenodd" clip-rule="evenodd" d="M67.7 44.9c1.8-1.7 3.7-2 5.8-.7.1-.5.3-1 .6-1.4 1-1.6 2.4-2.6 4.2-3a6 6 0 0 1 3.9.6c.3.1.2.2.4-.2 1-2 2.6-3.3 4.8-3.5a5.7 5.7 0 0 1 6.2 4.2c0 .3 0 .3.4.2 2-.5 3.7.7 4.1 2.6v.6c0 .4 0 .3.3.5a5.9 5.9 0 0 1 3.7 4.7c.2 1.7-.2 3.2-1.3 4.6a5.7 5.7 0 0 1-4.5 2.1H79c-.2 0-.3 0-.3.3 0 .2-.2.4-.4.6l-.5.5-26.2 26.2-2.3 2.3c-.5.5-1 .5-1.6 0L25.9 64.2 18.7 57c-.4-.3-.5-.7-.4-1.1l.3-.4 5.5-5.4 5.5-5.5 18-18.1c.2-.2.4-.4.6-.4.4 0 .7 0 1 .2v.1l15 15 3.4 3.3.1.2Zm6.2.6c-1-1-2.1-1.5-3.5-1.3-1.3.2-2.2 1-2.8 2.2l-.3-.3L49 27.8l-.1-.1c-.3-.3-.5-.3-.8 0H48a606320.4 606320.4 0 0 0-16.3 16.6l.3-.2 8.3-4.7h.7l4.5 2.9h.7l3.3-2.1c.1-.2.2-.2.4 0l1.8 1.8a11537.7 11537.7 0 0 1 9.3 9.3c1.2 1.4 2.5 2.6 4.2 3.4 1 .5 2 .9 3 .9h28a5.3 5.3 0 0 0 1.5-10.4c-.2 0-.3-.1-.3-.4v-1a2.6 2.6 0 0 0-3.8-1.8l-.4.1c-.4-3-2.6-4.5-4.4-4.7-3.2-.3-5 1.2-6 4.1a5.6 5.6 0 0 0-9 4Zm3.3 10.8H19.8l.2.4 4.7 4.6 23.1 23.2.3.2c.3.3.5.3.8 0l2.7-2.6 24.6-24.6.8-.9.2-.3Z" fill="#020202"/>
  <path fill-rule="evenodd" clip-rule="evenodd" d="M73.9 45.5a5.6 5.6 0 0 1 9-4c.8-2.9 2.7-4.4 5.9-4 1.8.1 4 1.6 4.4 4.6l.4-.1a2.6 2.6 0 0 1 3.8 2.8c0 .3 0 .4.3.4l.3.1a5.3 5.3 0 0 1-1.8 10.2h-28c-1 0-2-.3-3-.8a14.9 14.9 0 0 1-4.7-4L51.7 42l-1.8-1.8c-.2-.2-.3-.2-.4 0l-3.3 2c-.3.2-.4.2-.7 0L41 39.5h-.7L32 44.1l-.3.2V44l.3-.3 16-16 .1-.1c.3-.3.5-.3.8 0l18.4 18.4.3.3c.6-1.2 1.5-2 2.8-2.2 1.4-.2 2.5.3 3.5 1.3ZM54 37.2l.2.3 13.8 13.7 1.2 1.2c.2.2.5.3.7.1.3-.2.3-.5 0-.8l-.6-.6-14-14.1-.3-.2c0-.1-.1-.1-.2 0l-.8.4ZM51.5 39l.3.3 13 13.1.3.2c.1.2.3.2.5.2.4-.2.5-.6.2-1l-.7-.6-12.4-12.4-.2-.3h-.3l-.7.5Zm29.7 6.3h.8l.7.2c1.4.6 2.4 1.5 3.1 2.7.5.9.7 1.8.5 2.8 0 .6-.3 1.2-.5 1.8 0 .1-.2.2 0 .3l.2-.2.2-.3c.7-1 .9-2.1.6-3.3-.6-2.2-2-3.7-4.2-4.4-1.5-.4-3-.2-4.2.9 0 0-.3.1-.2.3.1.1.3 0 .4-.1.8-.5 1.6-.7 2.6-.7Zm-3 7v.6h.1l.1-.2c.3-.7.3-1.4 0-2-.6-1-1.4-1.8-2.5-2a3 3 0 0 0-2.8.5l-.6.7v.2h.2l.3-.3a3 3 0 0 1 2.4-.7 3 3 0 0 1 2.7 3.2Z" fill="#fff"/>
  <path fill-rule="evenodd" clip-rule="evenodd" d="m77.2 56.3-.2.3-.8.9L51.6 82c-1 .8-1.8 1.7-2.7 2.6-.3.3-.5.3-.8 0l-.3-.2-23.1-23.2-4.7-4.6-.2-.4h57.4Zm-24.9 11h.2l5-5c.3-.3.3-.4 0-.7l-3.3-3.2c-.3-.3-.3-.3-.6 0l-4.4 4.4-.6.6c-.2.2-.2.2-.4 0v-.1l-4-4-1-1c-.2-.2-.3-.2-.6 0v.1l-3.1 3.1-.2.2c-.2.2-.2.3 0 .5l.2.1 4.7 4.7c.5.5.5.3 0 .8l-4.8 4.7c-.3.3-.3.4 0 .7l3.2 3.2.1.2h.5l.1-.2 4.9-5c.2-.2.2-.1.4 0l3 3 2 2c.3.4.3.4.6 0l3.3-3.2c.3-.3.3-.3 0-.6l-3-3-2.2-2.3Z" fill="#FE0000"/>
  <path fill-rule="evenodd" clip-rule="evenodd" d="m54.1 37.2.8-.5h.2l.3.3 14 14 .7.7c.2.3.2.6-.1.8-.2.2-.5.1-.7 0L68 51.1 54.3 37.5c0-.1 0-.2-.2-.3ZM51.5 39l.7-.6h.3l.2.3L65.1 51l.7.7c.3.3.2.7-.2.9-.2 0-.4 0-.5-.2l-.2-.2-13.1-13-.3-.4ZM81.2 45.2c-1 0-1.8.2-2.6.7-.1 0-.3.2-.4 0l.2-.2c1.2-1.1 2.7-1.3 4.2-.9 2.2.7 3.6 2.2 4.2 4.4a4.1 4.1 0 0 1-.8 3.6c-.1.1-.2.3-.3.2v-.3l.6-1.8a4 4 0 0 0-.5-2.8 6.3 6.3 0 0 0-3.1-2.7 4 4 0 0 0-1.5-.2ZM78.2 52.2c0-1.7-1.1-3-2.8-3.2a3 3 0 0 0-2.4.7l-.3.3h-.1v-.2c0-.2.3-.5.5-.7a3 3 0 0 1 2.8-.5c1.1.2 2 1 2.5 2a2.4 2.4 0 0 1 0 2.2h-.2v-.6ZM52.3 67.3l2.2 2.2 3 3c.3.4.3.4 0 .7l-3.3 3.3c-.2.3-.3.3-.6 0l-2-2-3-3c-.2-.2-.2-.3-.4 0l-4.9 5h-.1c-.2.2-.3.2-.5 0h-.1l-3.2-3.3c-.3-.3-.3-.4 0-.7l4.8-4.7c.5-.5.5-.3 0-.8-1.6-1.5-3.2-3-4.7-4.7l-.2-.1c-.2-.2-.2-.3 0-.5l.2-.2 3-3 .1-.1c.3-.3.4-.3.7 0l1 1 3.8 3.9h.1c.2.3.2.3.4 0l.6-.5 4.4-4.4c.3-.3.4-.3.6 0l3.3 3.2c.3.3.3.4 0 .7l-5 5h-.2Z" fill="#020202"/>
</svg>
