<svg width="120" height="113" viewBox="0 0 120 113" fill="none" xmlns="http://www.w3.org/2000/svg">
  <path fill-rule="evenodd" clip-rule="evenodd" d="m80.1 45.5.5-.9a5.5 5.5 0 0 1 4.7-2.7c1.6 0 2.9.5 4 1.6.6.6 1 1.3 1.4 2.1 0 .3 0 .3.4.3a5 5 0 0 1 4.4 1.4c1 1 1.4 2 1.5 3.4.1 1.6-.4 3-1.6 4.1-.9.9-2 1.4-3.3 1.5H85c-.2 0-.4 0-.4.3l-.2.4-.2.1-29 29c-.7.8-1.2.8-1.9 0l-29-29c-.2-.2-.5-.5-.5-.9l.3-.6.2-.2 29-29c.3-.3.6-.6 1-.5l.5.1.4.4 19.5 19.5c.3.3.3.3.7 0 1.4-.9 2.8-1.2 4.4-.5l.4.1ZM25.2 56.3c0 .2.2.3.4.4l28 28.1.3.3h.5l.2-.2 3.8-3.8 24.2-24.2.2-.3.2-.2c0-.2-.2-.1-.3-.1H25.2Zm49.5-8.6c-.2-.1-.2-.3-.3-.4-6.6-6.5-13.2-13-19.7-19.7-.5-.4-.6-.4-1.1 0l-16 16-.3.4s-.2 0 0 .2l.3-.2 8.3-4.7h.6l4.6 2.9h.7l6-3.8c.2-.2.2-.2.4 0l1.6 1.6 13 13c.8.8 1.6 1.5 2.5 2 .7.4 1.4.6 2.1.6H92.6a4.6 4.6 0 0 0 3.6-5.5 4.5 4.5 0 0 0-5-3.5l-1 .1a5 5 0 0 0-1.4-2.8 4.6 4.6 0 0 0-3-1.3c-2.7-.1-4.5 1.3-5.3 3.9-1-.6-2-1-3.2-.7-1.1.2-2 .9-2.6 1.9Z" fill="#020201"/>
  <path fill-rule="evenodd" clip-rule="evenodd" d="M25.2 56.3H83c0 .2-.1.3-.2.3l-.2.3L58.4 81l-3.8 3.8-.2.1c-.2.2-.3.2-.5 0l-.3-.2-28-28-.4-.5ZM59 58.4l-1.3.1c-.6 0-1 .2-1.5.5-.4.2-.6.5-.5.9V61l.5 4.9.1 2.5c0 .4.3.7.7.9l.5.2c.8.2 1.6.2 2.4.1.5 0 1-.2 1.3-.4.3-.2.5-.4.5-.7l.4-4.9.3-3.9c0-.3 0-.5-.3-.7l-.7-.4-2.4-.3Zm-9.6 0-1.4.1a4 4 0 0 0-1.5.5c-.4.2-.5.5-.5.9L46 61l.4 4.8.2 2.5c0 .6.3.8.7 1l.5.2c.7.2 1.5.2 2.3 0 .5 0 1 0 1.4-.3.2-.2.4-.4.4-.7l.3-3.8.4-5c0-.3 0-.5-.3-.7-.3-.2-.6-.4-1-.4-.6-.2-1.3-.3-2-.3ZM58.9 77a3 3 0 1 0 0-6 3 3 0 0 0 0 6Zm-9.7 0a3 3 0 1 0 .1-6 3 3 0 0 0 0 6Z" fill="#FE9800"/>
  <path fill-rule="evenodd" clip-rule="evenodd" d="M74.7 47.7c.6-1 1.5-1.7 2.6-1.9a4 4 0 0 1 3.2.7c.8-2.6 2.6-4 5.4-3.9 1 .1 2 .6 2.9 1.3a5 5 0 0 1 1.5 2.8l.8-.1a4.5 4.5 0 0 1 5.1 3.5 4.6 4.6 0 0 1-4.5 5.5H77.4c-.7 0-1.4-.2-2-.6-1-.5-1.8-1.2-2.6-2l-13-13-1.6-1.6c-.2-.2-.2-.2-.4 0l-6 3.8h-.7l-4.6-2.9h-.6L37.6 44l-.4.2V44l.4-.3 16-16c.5-.5.6-.5 1 0l19.8 19.6.3.4ZM59.8 37.1c0 .2.2.2.3.3l5.2 5.3 6.4 6.4 3.5 3.4.2.3c.3.1.5 0 .7-.1.2-.2.2-.5 0-.7l-.2-.3-7.2-7.2-7.7-7.7-.2-.1h-.3l-.7.4Zm22 11.3-.8.1c-.7.2-1.3.5-1.7 1.2 0 0-.1.1 0 .2 0 .2.1 0 .2 0l.2-.2A3 3 0 0 1 81 49c1.2-.2 2.1.2 3 1 .4.4.7.9.7 1.5v1.1l.1.2.2-.1v-.3c.3-.8.2-1.5-.2-2.2a3.7 3.7 0 0 0-3.1-1.8Z" fill="#fff"/>
  <path fill-rule="evenodd" clip-rule="evenodd" d="M58.9 58.4c.8 0 1.6 0 2.4.3l.7.4c.2.2.3.4.3.7l-.3 3.9-.4 4.9c0 .3-.2.5-.5.7l-1.3.4a6.3 6.3 0 0 1-3-.3c-.3-.2-.5-.5-.6-1l-.1-2.4-.4-5-.1-1.1c0-.4.1-.7.5-1l1.5-.4h1.3ZM49.3 58.4c.7 0 1.4 0 2 .3.4 0 .7.2 1 .4.2.2.3.4.3.8l-.4 4.9-.3 3.8c0 .3-.2.5-.4.7l-1.4.4a6.4 6.4 0 0 1-2.8-.3c-.4-.2-.7-.4-.7-1l-.2-2.5L46 61v-1.2c-.1-.4 0-.7.4-1a4 4 0 0 1 1.5-.4h1.4ZM59 77a3 3 0 1 1 0-6 3 3 0 0 1 0 6ZM49.2 77a3 3 0 0 1-3-3 3 3 0 0 1 6.1 0 3 3 0 0 1-3 3ZM59.8 37.1l.7-.5h.3l.2.2 7.7 7.7 7.2 7.2.3.3v.7c-.3.2-.5.2-.8 0l-.2-.2-3.5-3.4-6.4-6.4-5.2-5.3-.3-.3ZM81.8 48.4c1.3.1 2.4.6 3 1.8a2.6 2.6 0 0 1 .3 2.5s0 .2-.2.1v-1.3c-.1-.6-.4-1.1-.8-1.5a3.4 3.4 0 0 0-3-1 3 3 0 0 0-1.4.7l-.2.1c0 .1-.1.3-.3.1l.1-.2c.4-.7 1-1 1.7-1.2h.8Z" fill="#020201"/>
</svg>
