<?xml version="1.0" standalone="no"?>
<!DOCTYPE svg PUBLIC "-//W3C//DTD SVG 20010904//EN"
 "http://www.w3.org/TR/2001/REC-SVG-20010904/DTD/svg10.dtd">
<svg version="1.0" xmlns="http://www.w3.org/2000/svg"
 width="316.000000pt" height="316.000000pt" viewBox="0 0 316.000000 316.000000"
 preserveAspectRatio="xMidYMid meet">
<metadata>
Created by potrace 1.14, written by Peter Selinger 2001-2017
</metadata>
<g transform="translate(0.000000,316.000000) scale(0.100000,-0.100000)"
fill="#000000" stroke="none">
<path d="M1440 3147 c-3 -3 -34 -8 -70 -11 -36 -4 -102 -16 -147 -27 -459
-110 -840 -410 -1047 -824 -49 -97 -109 -251 -121 -310 -14 -70 -26 -133 -29
-155 -3 -14 -7 -43 -11 -65 -10 -69 -8 -296 5 -385 51 -358 208 -670 461 -917
41 -39 92 -86 114 -103 22 -17 47 -36 55 -43 33 -27 157 -101 230 -138 126
-63 293 -119 400 -135 19 -3 40 -7 47 -9 23 -8 158 -18 238 -19 99 0 223 10
295 24 30 6 68 14 83 16 60 11 216 67 313 113 427 203 738 587 850 1046 34
140 39 195 39 395 -1 143 -5 195 -24 284 -102 488 -406 883 -847 1104 -75 38
-257 105 -314 116 -14 2 -47 9 -75 15 -27 6 -63 13 -80 16 -37 8 -359 17 -365
12z"/>
</g>
</svg>
